<svg id="visual" viewBox="0 0 900 600" width="900" height="600" xmlns="http://www.w3.org/2000/svg" xmlns:xlink="http://www.w3.org/1999/xlink" version="1.1"><rect x="0" y="0" width="900" height="600" fill="#F3E3CC"></rect><g fill="#FDC198"><circle r="78" cx="67" cy="488"></circle><circle r="5" cx="261" cy="10"></circle><circle r="48" cx="338" cy="153"></circle><circle r="76" cx="35" cy="238"></circle><circle r="43" cx="771" cy="305"></circle><circle r="55" cx="322" cy="311"></circle><circle r="76" cx="659" cy="125"></circle><circle r="26" cx="557" cy="561"></circle><circle r="30" cx="571" cy="354"></circle><circle r="73" cx="332" cy="514"></circle><circle r="59" cx="864" cy="461"></circle><circle r="43" cx="835" cy="81"></circle><circle r="47" cx="180" cy="382"></circle><circle r="37" cx="74" cy="21"></circle><circle r="73" cx="532" cy="9"></circle><circle r="55" cx="776" cy="589"></circle><circle r="38" cx="511" cy="194"></circle><circle r="6" cx="696" cy="449"></circle><circle r="72" cx="179" cy="161"></circle></g></svg>